<svg width="600" height="400" viewBox="0 0 600 400" fill="none" xmlns="http://www.w3.org/2000/svg">
<path d="M0 12C0 5.37257 5.37258 0 12 0H588C594.627 0 600 5.37258 600 12V388C600 394.627 594.627 400 588 400H12C5.37257 400 0 394.627 0 388V12Z" fill="#E5E7EB"/>
<path d="M0 12C0 5.37257 5.37258 0 12 0H588C594.627 0 600 5.37258 600 12V388C600 394.627 594.627 400 588 400H12C5.37257 400 0 394.627 0 388V12Z" stroke="#E5E7EB"/>
<path d="M183.141 188H416.859V212H183.141V188Z" stroke="#E5E7EB"/>
<path d="M185.959 193.364V205H184.55V193.364H185.959ZM189.943 199.75V205H188.602V196.273H189.898V197.636H190.011C190.216 197.193 190.527 196.837 190.943 196.568C191.36 196.295 191.898 196.159 192.557 196.159C193.148 196.159 193.665 196.28 194.108 196.523C194.551 196.761 194.896 197.125 195.142 197.614C195.388 198.098 195.511 198.712 195.511 199.455V205H194.17V199.545C194.17 198.86 193.992 198.326 193.636 197.943C193.28 197.557 192.792 197.364 192.17 197.364C191.742 197.364 191.36 197.456 191.023 197.642C190.689 197.828 190.426 198.098 190.233 198.455C190.04 198.811 189.943 199.242 189.943 199.75ZM201.757 196.273V197.409H197.234V196.273H201.757ZM198.553 194.182H199.893V202.5C199.893 202.879 199.948 203.163 200.058 203.352C200.172 203.538 200.316 203.663 200.49 203.727C200.668 203.788 200.856 203.818 201.053 203.818C201.2 203.818 201.321 203.811 201.416 203.795C201.511 203.777 201.587 203.761 201.643 203.75L201.916 204.955C201.825 204.989 201.698 205.023 201.536 205.057C201.373 205.095 201.166 205.114 200.916 205.114C200.537 205.114 200.166 205.032 199.803 204.869C199.443 204.706 199.143 204.458 198.905 204.125C198.67 203.792 198.553 203.371 198.553 202.864V194.182ZM207.339 205.182C206.499 205.182 205.773 204.996 205.163 204.625C204.557 204.25 204.089 203.727 203.76 203.057C203.434 202.383 203.271 201.598 203.271 200.705C203.271 199.811 203.434 199.023 203.76 198.341C204.089 197.655 204.548 197.121 205.135 196.739C205.726 196.352 206.415 196.159 207.203 196.159C207.658 196.159 208.107 196.235 208.55 196.386C208.993 196.538 209.396 196.784 209.76 197.125C210.124 197.462 210.413 197.909 210.629 198.466C210.845 199.023 210.953 199.708 210.953 200.523V201.091H204.226V199.932H209.589C209.589 199.439 209.491 199 209.294 198.614C209.101 198.227 208.824 197.922 208.464 197.699C208.108 197.475 207.688 197.364 207.203 197.364C206.669 197.364 206.207 197.496 205.817 197.761C205.43 198.023 205.133 198.364 204.925 198.784C204.716 199.205 204.612 199.655 204.612 200.136V200.909C204.612 201.568 204.726 202.127 204.953 202.585C205.184 203.04 205.504 203.386 205.913 203.625C206.322 203.86 206.798 203.977 207.339 203.977C207.692 203.977 208.01 203.928 208.294 203.83C208.582 203.727 208.83 203.576 209.038 203.375C209.247 203.17 209.408 202.917 209.521 202.614L210.817 202.977C210.68 203.417 210.451 203.803 210.129 204.136C209.807 204.466 209.41 204.723 208.936 204.909C208.463 205.091 207.93 205.182 207.339 205.182ZM212.993 205V196.273H214.288V197.591H214.379C214.538 197.159 214.826 196.809 215.243 196.54C215.66 196.271 216.129 196.136 216.652 196.136C216.75 196.136 216.874 196.138 217.021 196.142C217.169 196.146 217.281 196.152 217.357 196.159V197.523C217.311 197.511 217.207 197.494 217.044 197.472C216.885 197.445 216.716 197.432 216.538 197.432C216.114 197.432 215.735 197.521 215.402 197.699C215.072 197.873 214.811 198.116 214.618 198.426C214.429 198.733 214.334 199.083 214.334 199.477V205H212.993ZM221.514 205.205C220.961 205.205 220.459 205.1 220.009 204.892C219.558 204.68 219.2 204.375 218.935 203.977C218.67 203.576 218.537 203.091 218.537 202.523C218.537 202.023 218.635 201.617 218.832 201.307C219.029 200.992 219.293 200.746 219.622 200.568C219.952 200.39 220.315 200.258 220.713 200.17C221.115 200.08 221.518 200.008 221.923 199.955C222.454 199.886 222.884 199.835 223.213 199.801C223.546 199.763 223.789 199.701 223.94 199.614C224.096 199.527 224.173 199.375 224.173 199.159V199.114C224.173 198.553 224.02 198.117 223.713 197.807C223.41 197.496 222.95 197.341 222.332 197.341C221.692 197.341 221.19 197.481 220.827 197.761C220.463 198.042 220.207 198.341 220.06 198.659L218.787 198.205C219.014 197.674 219.317 197.261 219.696 196.966C220.079 196.667 220.495 196.458 220.946 196.341C221.401 196.22 221.848 196.159 222.287 196.159C222.567 196.159 222.889 196.193 223.253 196.261C223.62 196.326 223.974 196.46 224.315 196.665C224.66 196.869 224.946 197.178 225.173 197.591C225.401 198.004 225.514 198.557 225.514 199.25V205H224.173V203.818H224.105C224.014 204.008 223.863 204.21 223.651 204.426C223.438 204.642 223.156 204.826 222.804 204.977C222.452 205.129 222.022 205.205 221.514 205.205ZM221.719 204C222.249 204 222.696 203.896 223.06 203.688C223.427 203.479 223.704 203.21 223.889 202.881C224.079 202.551 224.173 202.205 224.173 201.841V200.614C224.116 200.682 223.991 200.744 223.798 200.801C223.609 200.854 223.389 200.902 223.139 200.943C222.893 200.981 222.652 201.015 222.418 201.045C222.187 201.072 221.999 201.095 221.855 201.114C221.507 201.159 221.181 201.233 220.878 201.335C220.579 201.434 220.336 201.583 220.151 201.784C219.969 201.981 219.878 202.25 219.878 202.591C219.878 203.057 220.05 203.409 220.395 203.648C220.743 203.883 221.185 204 221.719 204ZM231.507 205.182C230.689 205.182 229.984 204.989 229.393 204.602C228.803 204.216 228.348 203.684 228.03 203.006C227.712 202.328 227.553 201.553 227.553 200.682C227.553 199.795 227.715 199.013 228.041 198.335C228.371 197.653 228.829 197.121 229.416 196.739C230.007 196.352 230.696 196.159 231.484 196.159C232.098 196.159 232.651 196.273 233.143 196.5C233.636 196.727 234.039 197.045 234.354 197.455C234.668 197.864 234.863 198.341 234.939 198.886H233.598C233.496 198.489 233.268 198.136 232.916 197.83C232.568 197.519 232.098 197.364 231.507 197.364C230.984 197.364 230.526 197.5 230.132 197.773C229.742 198.042 229.437 198.422 229.217 198.915C229.001 199.403 228.893 199.977 228.893 200.636C228.893 201.311 229 201.898 229.212 202.398C229.428 202.898 229.731 203.286 230.121 203.562C230.515 203.839 230.977 203.977 231.507 203.977C231.856 203.977 232.172 203.917 232.456 203.795C232.74 203.674 232.981 203.5 233.178 203.273C233.375 203.045 233.515 202.773 233.598 202.455H234.939C234.863 202.97 234.676 203.434 234.376 203.847C234.081 204.256 233.689 204.581 233.2 204.824C232.715 205.062 232.151 205.182 231.507 205.182ZM240.695 196.273V197.409H236.172V196.273H240.695ZM237.49 194.182H238.831V202.5C238.831 202.879 238.886 203.163 238.996 203.352C239.109 203.538 239.253 203.663 239.428 203.727C239.606 203.788 239.793 203.818 239.99 203.818C240.138 203.818 240.259 203.811 240.354 203.795C240.448 203.777 240.524 203.761 240.581 203.75L240.854 204.955C240.763 204.989 240.636 205.023 240.473 205.057C240.31 205.095 240.104 205.114 239.854 205.114C239.475 205.114 239.104 205.032 238.74 204.869C238.38 204.706 238.081 204.458 237.842 204.125C237.607 203.792 237.49 203.371 237.49 202.864V194.182ZM242.712 205V196.273H244.053V205H242.712ZM243.393 194.818C243.132 194.818 242.907 194.729 242.717 194.551C242.532 194.373 242.439 194.159 242.439 193.909C242.439 193.659 242.532 193.445 242.717 193.267C242.907 193.089 243.132 193 243.393 193C243.655 193 243.878 193.089 244.064 193.267C244.253 193.445 244.348 193.659 244.348 193.909C244.348 194.159 244.253 194.373 244.064 194.551C243.878 194.729 243.655 194.818 243.393 194.818ZM253.645 196.273L250.418 205H249.054L245.827 196.273H247.281L249.69 203.227H249.781L252.19 196.273H253.645ZM258.761 205.182C257.92 205.182 257.195 204.996 256.585 204.625C255.979 204.25 255.511 203.727 255.182 203.057C254.856 202.383 254.693 201.598 254.693 200.705C254.693 199.811 254.856 199.023 255.182 198.341C255.511 197.655 255.97 197.121 256.557 196.739C257.148 196.352 257.837 196.159 258.625 196.159C259.08 196.159 259.528 196.235 259.972 196.386C260.415 196.538 260.818 196.784 261.182 197.125C261.545 197.462 261.835 197.909 262.051 198.466C262.267 199.023 262.375 199.708 262.375 200.523V201.091H255.648V199.932H261.011C261.011 199.439 260.913 199 260.716 198.614C260.523 198.227 260.246 197.922 259.886 197.699C259.53 197.475 259.11 197.364 258.625 197.364C258.091 197.364 257.629 197.496 257.239 197.761C256.852 198.023 256.555 198.364 256.347 198.784C256.138 199.205 256.034 199.655 256.034 200.136V200.909C256.034 201.568 256.148 202.127 256.375 202.585C256.606 203.04 256.926 203.386 257.335 203.625C257.744 203.86 258.22 203.977 258.761 203.977C259.114 203.977 259.432 203.928 259.716 203.83C260.004 203.727 260.252 203.576 260.46 203.375C260.669 203.17 260.83 202.917 260.943 202.614L262.239 202.977C262.102 203.417 261.873 203.803 261.551 204.136C261.229 204.466 260.831 204.723 260.358 204.909C259.884 205.091 259.352 205.182 258.761 205.182ZM272.688 205H269.097V193.364H272.847C273.975 193.364 274.941 193.597 275.744 194.062C276.547 194.525 277.163 195.189 277.591 196.057C278.019 196.92 278.233 197.955 278.233 199.159C278.233 200.371 278.017 201.415 277.585 202.29C277.153 203.161 276.525 203.831 275.699 204.301C274.873 204.767 273.869 205 272.688 205ZM270.506 203.75H272.597C273.559 203.75 274.356 203.564 274.989 203.193C275.621 202.822 276.093 202.294 276.403 201.608C276.714 200.922 276.869 200.106 276.869 199.159C276.869 198.22 276.716 197.411 276.409 196.733C276.102 196.051 275.644 195.528 275.034 195.165C274.424 194.797 273.665 194.614 272.756 194.614H270.506V203.75ZM282.983 205.205C282.43 205.205 281.928 205.1 281.477 204.892C281.027 204.68 280.669 204.375 280.403 203.977C280.138 203.576 280.006 203.091 280.006 202.523C280.006 202.023 280.104 201.617 280.301 201.307C280.498 200.992 280.761 200.746 281.091 200.568C281.42 200.39 281.784 200.258 282.182 200.17C282.583 200.08 282.987 200.008 283.392 199.955C283.922 199.886 284.352 199.835 284.682 199.801C285.015 199.763 285.258 199.701 285.409 199.614C285.564 199.527 285.642 199.375 285.642 199.159V199.114C285.642 198.553 285.489 198.117 285.182 197.807C284.879 197.496 284.419 197.341 283.801 197.341C283.161 197.341 282.659 197.481 282.295 197.761C281.932 198.042 281.676 198.341 281.528 198.659L280.256 198.205C280.483 197.674 280.786 197.261 281.165 196.966C281.547 196.667 281.964 196.458 282.415 196.341C282.869 196.22 283.316 196.159 283.756 196.159C284.036 196.159 284.358 196.193 284.722 196.261C285.089 196.326 285.443 196.46 285.784 196.665C286.129 196.869 286.415 197.178 286.642 197.591C286.869 198.004 286.983 198.557 286.983 199.25V205H285.642V203.818H285.574C285.483 204.008 285.331 204.21 285.119 204.426C284.907 204.642 284.625 204.826 284.273 204.977C283.92 205.129 283.491 205.205 282.983 205.205ZM283.188 204C283.718 204 284.165 203.896 284.528 203.688C284.896 203.479 285.172 203.21 285.358 202.881C285.547 202.551 285.642 202.205 285.642 201.841V200.614C285.585 200.682 285.46 200.744 285.267 200.801C285.078 200.854 284.858 200.902 284.608 200.943C284.362 200.981 284.121 201.015 283.886 201.045C283.655 201.072 283.468 201.095 283.324 201.114C282.975 201.159 282.65 201.233 282.347 201.335C282.047 201.434 281.805 201.583 281.619 201.784C281.438 201.981 281.347 202.25 281.347 202.591C281.347 203.057 281.519 203.409 281.864 203.648C282.212 203.883 282.653 204 283.188 204ZM295.612 198.227L294.408 198.568C294.332 198.367 294.22 198.172 294.072 197.983C293.929 197.79 293.732 197.631 293.482 197.506C293.232 197.381 292.911 197.318 292.521 197.318C291.987 197.318 291.542 197.441 291.186 197.688C290.834 197.93 290.658 198.239 290.658 198.614C290.658 198.947 290.779 199.21 291.021 199.403C291.264 199.597 291.643 199.758 292.158 199.886L293.453 200.205C294.233 200.394 294.815 200.684 295.197 201.074C295.58 201.46 295.771 201.958 295.771 202.568C295.771 203.068 295.627 203.515 295.339 203.909C295.055 204.303 294.658 204.614 294.146 204.841C293.635 205.068 293.04 205.182 292.362 205.182C291.472 205.182 290.735 204.989 290.152 204.602C289.569 204.216 289.199 203.652 289.044 202.909L290.317 202.591C290.438 203.061 290.667 203.413 291.004 203.648C291.345 203.883 291.79 204 292.339 204C292.964 204 293.461 203.867 293.828 203.602C294.199 203.333 294.385 203.011 294.385 202.636C294.385 202.333 294.279 202.08 294.067 201.875C293.855 201.667 293.529 201.511 293.089 201.409L291.635 201.068C290.836 200.879 290.249 200.585 289.874 200.188C289.502 199.786 289.317 199.284 289.317 198.682C289.317 198.189 289.455 197.754 289.732 197.375C290.012 196.996 290.393 196.699 290.874 196.483C291.358 196.267 291.908 196.159 292.521 196.159C293.385 196.159 294.063 196.348 294.555 196.727C295.052 197.106 295.404 197.606 295.612 198.227ZM299.131 199.75V205H297.79V193.364H299.131V197.636H299.244C299.449 197.186 299.756 196.828 300.165 196.562C300.578 196.294 301.127 196.159 301.812 196.159C302.407 196.159 302.928 196.278 303.375 196.517C303.822 196.752 304.169 197.114 304.415 197.602C304.665 198.087 304.79 198.705 304.79 199.455V205H303.449V199.545C303.449 198.852 303.269 198.316 302.909 197.938C302.553 197.555 302.059 197.364 301.426 197.364C300.987 197.364 300.593 197.456 300.244 197.642C299.9 197.828 299.627 198.098 299.426 198.455C299.229 198.811 299.131 199.242 299.131 199.75ZM307.425 205V193.364H308.766V197.659H308.879C308.978 197.508 309.114 197.314 309.288 197.08C309.466 196.841 309.72 196.629 310.05 196.443C310.383 196.254 310.834 196.159 311.402 196.159C312.137 196.159 312.785 196.343 313.345 196.71C313.906 197.078 314.343 197.598 314.658 198.273C314.972 198.947 315.129 199.742 315.129 200.659C315.129 201.583 314.972 202.384 314.658 203.062C314.343 203.737 313.908 204.259 313.351 204.631C312.794 204.998 312.152 205.182 311.425 205.182C310.864 205.182 310.415 205.089 310.078 204.903C309.741 204.714 309.482 204.5 309.3 204.261C309.118 204.019 308.978 203.818 308.879 203.659H308.72V205H307.425ZM308.743 200.636C308.743 201.295 308.839 201.877 309.033 202.381C309.226 202.881 309.508 203.273 309.879 203.557C310.25 203.837 310.705 203.977 311.243 203.977C311.804 203.977 312.271 203.83 312.646 203.534C313.025 203.235 313.309 202.833 313.499 202.33C313.692 201.822 313.788 201.258 313.788 200.636C313.788 200.023 313.694 199.47 313.504 198.977C313.319 198.481 313.036 198.089 312.658 197.801C312.283 197.509 311.811 197.364 311.243 197.364C310.697 197.364 310.239 197.502 309.868 197.778C309.497 198.051 309.216 198.434 309.027 198.926C308.838 199.415 308.743 199.985 308.743 200.636ZM320.726 205.182C319.938 205.182 319.247 204.994 318.652 204.619C318.061 204.244 317.599 203.72 317.266 203.045C316.936 202.371 316.771 201.583 316.771 200.682C316.771 199.773 316.936 198.979 317.266 198.301C317.599 197.623 318.061 197.097 318.652 196.722C319.247 196.347 319.938 196.159 320.726 196.159C321.514 196.159 322.203 196.347 322.794 196.722C323.389 197.097 323.851 197.623 324.18 198.301C324.514 198.979 324.68 199.773 324.68 200.682C324.68 201.583 324.514 202.371 324.18 203.045C323.851 203.72 323.389 204.244 322.794 204.619C322.203 204.994 321.514 205.182 320.726 205.182ZM320.726 203.977C321.324 203.977 321.817 203.824 322.203 203.517C322.589 203.21 322.875 202.807 323.061 202.307C323.247 201.807 323.339 201.265 323.339 200.682C323.339 200.098 323.247 199.555 323.061 199.051C322.875 198.547 322.589 198.14 322.203 197.83C321.817 197.519 321.324 197.364 320.726 197.364C320.127 197.364 319.635 197.519 319.249 197.83C318.862 198.14 318.576 198.547 318.391 199.051C318.205 199.555 318.112 200.098 318.112 200.682C318.112 201.265 318.205 201.807 318.391 202.307C318.576 202.807 318.862 203.21 319.249 203.517C319.635 203.824 320.127 203.977 320.726 203.977ZM329.295 205.205C328.742 205.205 328.241 205.1 327.79 204.892C327.339 204.68 326.981 204.375 326.716 203.977C326.451 203.576 326.318 203.091 326.318 202.523C326.318 202.023 326.417 201.617 326.614 201.307C326.811 200.992 327.074 200.746 327.403 200.568C327.733 200.39 328.097 200.258 328.494 200.17C328.896 200.08 329.299 200.008 329.705 199.955C330.235 199.886 330.665 199.835 330.994 199.801C331.328 199.763 331.57 199.701 331.722 199.614C331.877 199.527 331.955 199.375 331.955 199.159V199.114C331.955 198.553 331.801 198.117 331.494 197.807C331.191 197.496 330.731 197.341 330.114 197.341C329.473 197.341 328.972 197.481 328.608 197.761C328.244 198.042 327.989 198.341 327.841 198.659L326.568 198.205C326.795 197.674 327.098 197.261 327.477 196.966C327.86 196.667 328.277 196.458 328.727 196.341C329.182 196.22 329.629 196.159 330.068 196.159C330.348 196.159 330.67 196.193 331.034 196.261C331.402 196.326 331.756 196.46 332.097 196.665C332.441 196.869 332.727 197.178 332.955 197.591C333.182 198.004 333.295 198.557 333.295 199.25V205H331.955V203.818H331.886C331.795 204.008 331.644 204.21 331.432 204.426C331.22 204.642 330.938 204.826 330.585 204.977C330.233 205.129 329.803 205.205 329.295 205.205ZM329.5 204C330.03 204 330.477 203.896 330.841 203.688C331.208 203.479 331.485 203.21 331.67 202.881C331.86 202.551 331.955 202.205 331.955 201.841V200.614C331.898 200.682 331.773 200.744 331.58 200.801C331.39 200.854 331.17 200.902 330.92 200.943C330.674 200.981 330.434 201.015 330.199 201.045C329.968 201.072 329.78 201.095 329.636 201.114C329.288 201.159 328.962 201.233 328.659 201.335C328.36 201.434 328.117 201.583 327.932 201.784C327.75 201.981 327.659 202.25 327.659 202.591C327.659 203.057 327.831 203.409 328.176 203.648C328.525 203.883 328.966 204 329.5 204ZM335.743 205V196.273H337.038V197.591H337.129C337.288 197.159 337.576 196.809 337.993 196.54C338.41 196.271 338.879 196.136 339.402 196.136C339.5 196.136 339.624 196.138 339.771 196.142C339.919 196.146 340.031 196.152 340.107 196.159V197.523C340.061 197.511 339.957 197.494 339.794 197.472C339.635 197.445 339.466 197.432 339.288 197.432C338.864 197.432 338.485 197.521 338.152 197.699C337.822 197.873 337.561 198.116 337.368 198.426C337.179 198.733 337.084 199.083 337.084 199.477V205H335.743ZM344.726 205.182C343.999 205.182 343.357 204.998 342.8 204.631C342.243 204.259 341.807 203.737 341.493 203.062C341.179 202.384 341.021 201.583 341.021 200.659C341.021 199.742 341.179 198.947 341.493 198.273C341.807 197.598 342.245 197.078 342.805 196.71C343.366 196.343 344.014 196.159 344.749 196.159C345.317 196.159 345.766 196.254 346.095 196.443C346.429 196.629 346.682 196.841 346.857 197.08C347.035 197.314 347.173 197.508 347.271 197.659H347.385V193.364H348.726V205H347.43V203.659H347.271C347.173 203.818 347.033 204.019 346.851 204.261C346.669 204.5 346.41 204.714 346.072 204.903C345.735 205.089 345.286 205.182 344.726 205.182ZM344.908 203.977C345.446 203.977 345.9 203.837 346.271 203.557C346.643 203.273 346.925 202.881 347.118 202.381C347.311 201.877 347.408 201.295 347.408 200.636C347.408 199.985 347.313 199.415 347.124 198.926C346.934 198.434 346.654 198.051 346.283 197.778C345.911 197.502 345.453 197.364 344.908 197.364C344.339 197.364 343.866 197.509 343.487 197.801C343.112 198.089 342.83 198.481 342.641 198.977C342.455 199.47 342.362 200.023 342.362 200.636C342.362 201.258 342.457 201.822 342.646 202.33C342.839 202.833 343.124 203.235 343.499 203.534C343.877 203.83 344.347 203.977 344.908 203.977ZM356.05 205V193.364H359.982C360.894 193.364 361.641 193.528 362.22 193.858C362.804 194.184 363.235 194.625 363.516 195.182C363.796 195.739 363.936 196.36 363.936 197.045C363.936 197.731 363.796 198.354 363.516 198.915C363.239 199.475 362.811 199.922 362.232 200.256C361.652 200.585 360.91 200.75 360.004 200.75H357.186V199.5H359.959C360.584 199.5 361.086 199.392 361.464 199.176C361.843 198.96 362.118 198.669 362.288 198.301C362.463 197.93 362.55 197.511 362.55 197.045C362.55 196.58 362.463 196.163 362.288 195.795C362.118 195.428 361.841 195.14 361.459 194.932C361.076 194.72 360.569 194.614 359.936 194.614H357.459V205H356.05ZM366.024 205V196.273H367.32V197.591H367.411C367.57 197.159 367.857 196.809 368.274 196.54C368.691 196.271 369.161 196.136 369.683 196.136C369.782 196.136 369.905 196.138 370.053 196.142C370.2 196.146 370.312 196.152 370.388 196.159V197.523C370.342 197.511 370.238 197.494 370.075 197.472C369.916 197.445 369.748 197.432 369.57 197.432C369.145 197.432 368.767 197.521 368.433 197.699C368.104 197.873 367.842 198.116 367.649 198.426C367.46 198.733 367.365 199.083 367.365 199.477V205H366.024ZM375.371 205.182C374.53 205.182 373.804 204.996 373.195 204.625C372.589 204.25 372.121 203.727 371.791 203.057C371.465 202.383 371.303 201.598 371.303 200.705C371.303 199.811 371.465 199.023 371.791 198.341C372.121 197.655 372.579 197.121 373.166 196.739C373.757 196.352 374.446 196.159 375.234 196.159C375.689 196.159 376.138 196.235 376.581 196.386C377.024 196.538 377.428 196.784 377.791 197.125C378.155 197.462 378.445 197.909 378.661 198.466C378.876 199.023 378.984 199.708 378.984 200.523V201.091H372.257V199.932H377.621C377.621 199.439 377.522 199 377.325 198.614C377.132 198.227 376.856 197.922 376.496 197.699C376.14 197.475 375.719 197.364 375.234 197.364C374.7 197.364 374.238 197.496 373.848 197.761C373.462 198.023 373.164 198.364 372.956 198.784C372.748 199.205 372.643 199.655 372.643 200.136V200.909C372.643 201.568 372.757 202.127 372.984 202.585C373.215 203.04 373.536 203.386 373.945 203.625C374.354 203.86 374.829 203.977 375.371 203.977C375.723 203.977 376.041 203.928 376.325 203.83C376.613 203.727 376.861 203.576 377.07 203.375C377.278 203.17 377.439 202.917 377.553 202.614L378.848 202.977C378.712 203.417 378.482 203.803 378.161 204.136C377.839 204.466 377.441 204.723 376.967 204.909C376.494 205.091 375.962 205.182 375.371 205.182ZM387.895 196.273L384.668 205H383.304L380.077 196.273H381.531L383.94 203.227H384.031L386.44 196.273H387.895ZM389.665 205V196.273H391.006V205H389.665ZM390.347 194.818C390.085 194.818 389.86 194.729 389.67 194.551C389.485 194.373 389.392 194.159 389.392 193.909C389.392 193.659 389.485 193.445 389.67 193.267C389.86 193.089 390.085 193 390.347 193C390.608 193 390.831 193.089 391.017 193.267C391.206 193.445 391.301 193.659 391.301 193.909C391.301 194.159 391.206 194.373 391.017 194.551C390.831 194.729 390.608 194.818 390.347 194.818ZM397.121 205.182C396.28 205.182 395.554 204.996 394.945 204.625C394.339 204.25 393.871 203.727 393.541 203.057C393.215 202.383 393.053 201.598 393.053 200.705C393.053 199.811 393.215 199.023 393.541 198.341C393.871 197.655 394.329 197.121 394.916 196.739C395.507 196.352 396.196 196.159 396.984 196.159C397.439 196.159 397.888 196.235 398.331 196.386C398.774 196.538 399.178 196.784 399.541 197.125C399.905 197.462 400.195 197.909 400.411 198.466C400.626 199.023 400.734 199.708 400.734 200.523V201.091H394.007V199.932H399.371C399.371 199.439 399.272 199 399.075 198.614C398.882 198.227 398.606 197.922 398.246 197.699C397.89 197.475 397.469 197.364 396.984 197.364C396.45 197.364 395.988 197.496 395.598 197.761C395.212 198.023 394.914 198.364 394.706 198.784C394.498 199.205 394.393 199.655 394.393 200.136V200.909C394.393 201.568 394.507 202.127 394.734 202.585C394.965 203.04 395.286 203.386 395.695 203.625C396.104 203.86 396.579 203.977 397.121 203.977C397.473 203.977 397.791 203.928 398.075 203.83C398.363 203.727 398.611 203.576 398.82 203.375C399.028 203.17 399.189 202.917 399.303 202.614L400.598 202.977C400.462 203.417 400.232 203.803 399.911 204.136C399.589 204.466 399.191 204.723 398.717 204.909C398.244 205.091 397.712 205.182 397.121 205.182ZM404.751 205L402.092 196.273H403.501L405.388 202.955H405.479L407.342 196.273H408.774L410.615 202.932H410.706L412.592 196.273H414.001L411.342 205H410.024L408.115 198.295H407.979L406.07 205H404.751Z" fill="#4B5563"/>
</svg>
