<svg width="34" height="30" viewBox="0 0 34 30" fill="none" xmlns="http://www.w3.org/2000/svg">
<g clip-path="url(#clip0_2_139)">
<path d="M14.625 27.627C15.2578 27.8496 15.9375 27.3867 15.9375 26.7187V4.60547C15.9375 4.35937 15.8438 4.11328 15.6445 3.96094C14.4961 3.04687 11.8594 1.875 8.4375 1.875C5.47852 1.875 2.71289 2.6543 1.06055 3.28711C0.398438 3.54492 0 4.20117 0 4.91016V26.6074C0 27.3047 0.75 27.791 1.41211 27.5742C3.25781 26.959 6.18164 26.25 8.4375 26.25C10.4238 26.25 13.0664 27.0703 14.625 27.627ZM19.125 27.627C20.6836 27.0703 23.3262 26.25 25.3125 26.25C27.5684 26.25 30.4922 26.959 32.3379 27.5742C33 27.7969 33.75 27.3047 33.75 26.6074V4.91016C33.75 4.20117 33.3516 3.54492 32.6895 3.29297C31.0371 2.6543 28.2715 1.875 25.3125 1.875C21.8906 1.875 19.2539 3.04687 18.1055 3.96094C17.9121 4.11328 17.8125 4.35937 17.8125 4.60547V26.7187C17.8125 27.3867 18.498 27.8496 19.125 27.627Z" fill="#374151"/>
</g>
<defs>
<clipPath id="clip0_2_139">
<path d="M0 0H33.75V30H0V0Z" fill="white"/>
</clipPath>
</defs>
</svg>
