<svg width="31" height="30" viewBox="0 0 31 30" fill="none" xmlns="http://www.w3.org/2000/svg">
<g clip-path="url(#clip0_2_158)">
<path d="M4.07812 3.75C4.07812 2.71289 3.24023 1.875 2.20312 1.875C1.16602 1.875 0.328125 2.71289 0.328125 3.75V23.4375C0.328125 26.0273 2.42578 28.125 5.01562 28.125H28.4531C29.4902 28.125 30.3281 27.2871 30.3281 26.25C30.3281 25.2129 29.4902 24.375 28.4531 24.375H5.01562C4.5 24.375 4.07812 23.9531 4.07812 23.4375V3.75ZM27.9023 8.82422C28.6348 8.0918 28.6348 6.90234 27.9023 6.16992C27.1699 5.4375 25.9805 5.4375 25.248 6.16992L19.0781 12.3457L15.7148 8.98242C14.9824 8.25 13.793 8.25 13.0605 8.98242L6.49805 15.5449C5.76563 16.2773 5.76563 17.4668 6.49805 18.1992C7.23047 18.9316 8.41992 18.9316 9.15234 18.1992L14.3906 12.9668L17.7539 16.3301C18.4863 17.0625 19.6758 17.0625 20.4082 16.3301L27.9082 8.83008L27.9023 8.82422Z" fill="#374151"/>
</g>
<defs>
<clipPath id="clip0_2_158">
<path d="M0.328125 0H30.3281V30H0.328125V0Z" fill="white"/>
</clipPath>
</defs>
</svg>
