<svg width="49" height="48" viewBox="0 0 49 48" fill="none" xmlns="http://www.w3.org/2000/svg">
<g clip-path="url(#clip0_2_204)">
<mask id="mask0_2_204" style="mask-type:luminance" maskUnits="userSpaceOnUse" x="0" y="0" width="49" height="48">
<path d="M48.6562 0H0.65625V48H48.6562V0Z" fill="white"/>
</mask>
<g mask="url(#mask0_2_204)">
<path d="M36.381 42.8642C30.9205 59.2129 16.3553 64.2551 8.65442 43.9541C7.59203 41.1633 10.3608 40.1285 12.2985 38.8954C13.6251 38.0532 14.3241 37.3266 14.2416 36.5725C13.8563 33.0275 12.2104 23.1523 12.2104 23.1523L12.0452 22.833C12.0452 22.833 12.0838 22.745 11.9241 22.8991C11.759 23.0642 11.3792 24.7817 9.88744 24.7817C8.53882 24.7817 7.17919 24.1817 6.52965 20.0312C6.28194 18.5285 6.41405 14.5872 8.08744 13.8716C8.77552 13.5798 9.40855 13.4752 10.0251 13.8275C10.6471 14.1798 9.30946 12.6165 16.1902 6.89176C20.6599 3.15965 27.7223 2.61469 30.5737 3.24772C33.4251 3.88075 36.2709 5.27341 37.5315 8.22937C39.0618 11.8074 36.1058 14.5211 36.7608 22.6789C36.6397 25.6294 36.8049 32.1028 28.6911 34.2716C27.1498 34.6844 27.6287 36.9358 29.9407 37.4863C33.6287 38.6422 36.381 41.4661 36.381 42.8752" fill="white"/>
<path fill-rule="evenodd" clip-rule="evenodd" d="M36.381 17.4606L36.3865 17.3835C36.6122 15.3798 36.8379 13.4367 37.8783 11.6918C38.2361 11.934 38.1921 12.2422 38.082 12.5285C36.9865 15.3468 37.0911 18.2753 37.1902 21.2037L37.2122 21.9743C37.3278 25.6294 36.4141 28.9542 33.981 31.745C33.1333 32.7138 32.0104 33.3854 30.871 33.9633C29.693 34.5688 29.4453 35.0698 29.8141 36.3633L29.8581 36.5065C29.9352 36.7211 30.0122 36.9413 29.8031 37.156C29.5554 37.4092 29.2801 37.3376 28.9884 37.2551L28.9554 37.2496C26.2261 36.4854 23.667 35.2095 21.4141 33.4899C21.0838 33.2477 20.8196 32.923 20.5609 32.6037L20.5443 32.5817C20.4067 32.4165 20.3792 32.1523 20.5719 32.0092C20.7535 31.8716 20.8911 31.9817 21.0508 32.1083L21.1058 32.1578C22.3078 33.1331 23.7666 33.7392 25.3058 33.9028C26.0434 33.9798 26.77 33.9523 27.5076 33.9248C27.915 33.9083 28.3223 33.8918 28.7352 33.8973C29.2966 33.8973 29.7645 33.6386 30.2049 33.3909L30.359 33.3028C31.8893 32.4496 33.348 31.4973 34.3333 29.9615C35.2196 28.5854 35.759 27.0881 36.0728 25.5083C36.4691 23.5211 36.4361 21.5065 36.4031 19.4643C36.3865 18.8037 36.3755 18.1321 36.3755 17.4606H36.381ZM8.67095 13.3101C9.87646 13.2165 10.5425 13.9266 11.1095 14.7578C11.7815 15.7734 12.2039 16.9333 12.3425 18.1431C12.37 18.3468 12.3976 18.5615 12.2765 18.7652C12.0287 18.7982 12.0067 18.6 12.0012 18.4569C11.9737 17.3175 11.4673 16.3266 10.9609 15.3688C10.5976 14.6808 10.0691 14.0147 9.23242 13.8496C8.28563 13.6569 7.41591 14.5101 6.98655 15.622C6.18838 17.6918 6.326 19.7285 7.06361 21.7321C7.38288 22.6074 7.78471 23.4991 8.59389 24.1101C9.40857 24.7321 10.3939 24.622 10.9939 23.7964L11.104 23.6587C11.2141 23.5156 11.3242 23.378 11.3792 23.2184C11.4948 22.8991 11.6765 22.6019 12.0012 22.6459C12.3755 22.7009 12.4416 23.1028 12.4801 23.4165C12.8216 26.3002 13.2254 29.1761 13.6911 32.0422L14.0159 34.178C14.159 35.1193 14.3242 36.4734 14.2141 37.0459C14.207 37.086 14.2015 37.1264 14.1976 37.167C14.1755 37.3211 14.1645 37.4422 13.9664 37.4698C13.6966 37.5138 13.581 37.3597 13.5425 37.1175C13.4159 36.1817 13.3774 35.8184 13.3223 34.3872C13.2728 33 13.0141 31.6349 12.7499 30.2642L12.4746 28.778C12.1884 27.0826 11.9076 25.3652 11.8801 23.4386L11.77 23.6037C11.3517 24.2257 11.0159 24.7321 10.4214 24.9248C9.98011 25.0939 9.49649 25.1184 9.04037 24.9947C8.58426 24.871 8.17924 24.6056 7.8838 24.2367C7.10813 23.3607 6.56324 22.3049 6.29848 21.1652C5.83609 19.2936 5.75352 17.4716 6.34802 15.6276C6.63425 14.7413 7.6526 13.167 8.67095 13.3156V13.3101ZM10.5755 20.3285C10.8177 20.5046 11.0379 20.6587 11.2361 20.0312C11.1755 17.7083 10.4269 16.222 9.26545 16.1615C9.88196 16.9652 10.4765 17.7468 10.5315 18.8312C10.3024 18.7143 10.1015 18.549 9.94251 18.3468C9.83242 18.2257 9.72233 18.1046 9.58471 18.0165L9.41958 17.8844C9.15536 17.6863 8.88563 17.4771 8.43976 17.6367C8.64893 17.956 8.93517 18.1872 9.22692 18.4074C9.55719 18.6661 9.88747 18.9193 10.0856 19.3156C9.50214 19.7395 9.24893 20.2899 9.55169 20.9615C9.81591 21.5395 10.2067 22.0184 10.9774 22.0514C10.9443 21.7046 10.7187 21.4514 10.493 21.2037C10.2177 20.9065 9.95903 20.6202 10.0801 20.1798C10.2563 20.0973 10.4214 20.2184 10.5755 20.3285Z" fill="black"/>
<path d="M57.5516 72.1101H-8.96579L-8.49239 68.6257C-8.49239 68.6257 -12.764 67.1725 -13.1878 66.3303C-13.6172 65.4881 -8.55845 54.5395 -7.86487 52.811C-7.16579 51.0771 -3.62634 44.9505 -1.52909 43.7835C0.804853 42.4734 8.47274 39 8.91311 38.6477C10.3498 37.4917 13.4654 36.2917 13.4654 36.2917V37.9817L22.9003 53.4495L23.4672 55.5303C23.4672 55.5303 29.17 40.0734 29.7039 36.9358C30.1553 34.2936 36.2984 37.4973 36.2984 37.4973C36.2984 37.4973 42.5792 41.3835 44.17 42.633C47.3847 45.1762 51.8764 50.2624 54.1168 55.8C55.3938 58.9376 58.1076 65.0587 58.5535 65.7798C58.9993 66.4954 57.0672 67.7615 57.0672 67.7615L57.5516 72.1156V72.1101Z" fill="white"/>
<path fill-rule="evenodd" clip-rule="evenodd" d="M43.9498 42.9909C42.6232 41.8955 41.2911 40.8 39.8214 39.9523C39.6012 39.8312 39.392 39.6991 39.1773 39.567C38.4507 39.1377 37.7241 38.6973 36.8984 38.4331C36.7994 38.9945 36.8214 39.534 36.8709 40.0624C37.1351 42.6464 37.1369 45.2505 36.8764 47.8349C36.7994 48.4679 36.8159 49.1175 36.8324 49.7615L36.8434 50.4386C36.8434 50.8129 36.7884 51.1872 36.6948 51.5395C36.5627 52.0459 36.326 52.2716 35.814 52.3101C35.3572 52.3432 34.9003 52.4147 34.4489 52.4863C33.7184 52.6283 32.9746 52.6911 32.2306 52.6734C32.0764 52.6624 31.9223 52.6679 31.8287 52.6734H31.7572L31.9498 52.9156C32.126 53.1358 32.3351 53.3945 32.5223 53.6643C32.8251 54.0881 32.8911 54.4569 32.6049 55.0349C31.1737 57.9193 29.2471 60.3909 27.1773 62.6477C26.5168 63.3688 25.8893 64.145 25.2673 64.9156C24.2379 66.1982 23.2085 67.4808 21.9755 68.5377C21.3535 69.0716 20.792 69.6826 20.2251 70.2991C19.6768 70.9202 19.0942 71.5101 18.4801 72.0661C17.748 72.1046 17.0379 72.1046 16.2673 72.1046C16.6195 71.4 16.9058 70.6459 17.192 69.8918C17.4407 69.2132 17.7161 68.5448 18.0177 67.8881C18.5554 66.7268 19.0457 65.5442 19.4874 64.3432C19.8177 63.4624 19.8342 62.5707 19.2562 61.767L18.6287 60.8863C17.5058 59.3175 16.3773 57.7487 15.0948 56.334C14.5113 55.6955 14.3792 54.6826 14.748 53.7468C14.8416 53.5156 14.9241 53.2789 15.0122 53.0367L15.1278 52.7175C14.3572 52.3872 13.5865 52.3707 12.8104 52.3487C12.4416 52.3487 12.0783 52.3377 11.7205 52.2936L11.6434 52.2826C10.4544 52.1505 10.4324 52.145 10.014 50.8404C9.10542 48.0357 8.52179 45.136 8.27459 42.1982C8.2268 41.3771 8.04263 40.5698 7.72964 39.8092C6.47459 40.3211 5.27459 40.8991 4.0801 41.4771L4.02505 41.4991C2.66542 42.1597 1.3168 42.8698 -0.0208191 43.5964C-2.00247 44.6863 -3.54926 46.3377 -4.80981 48.3633L-4.83733 48.4074C-5.7566 49.8826 -6.67036 51.3578 -7.39146 52.9762L-8.70155 55.8936L-9.43366 57.5065L-10.0116 58.778C-10.5181 59.8899 -11.0245 60.9964 -11.4979 62.1193C-11.9061 63.0672 -12.2806 64.0293 -12.6208 65.0037C-12.841 65.6477 -12.6263 65.9395 -12.1639 66.1046L-11.3383 66.4349C-10.5742 66.7752 -9.77484 67.03 -8.95476 67.1945C-7.85385 67.3707 -6.86302 67.8276 -5.8722 68.2844L-5.80064 68.3175L-5.72357 68.3505C-4.05568 69.1211 -2.42082 69.9633 -0.780452 70.811C-0.0846104 71.1871 0.588148 71.6043 1.23423 72.0606C0.705787 72.1046 0.177346 72.1156 -0.351094 72.0771C-1.78434 71.2868 -3.27259 70.6006 -4.80431 70.0239C-5.8722 69.5945 -6.94008 69.1652 -7.99697 68.6477C-8.07361 69.0457 -8.15803 69.4421 -8.25018 69.8367C-8.42632 70.6239 -8.59146 71.3505 -8.61348 72.1101H-9.30706C-9.42816 71.7138 -9.34009 71.3395 -9.25752 70.9652L-9.19146 70.6624C-9.08137 70.0404 -9.12541 69.578 -9.81898 69.4459C-10.8373 69.2422 -11.6905 68.6312 -12.5493 68.0202C-12.6408 67.9558 -12.7326 67.8916 -12.8245 67.8276C-13.485 67.3597 -13.6942 66.3854 -13.441 65.2404C-13.1548 63.9468 -12.6483 62.7633 -12.1364 61.5799L-12.0649 61.4147C-11.1676 59.323 -10.2373 57.2588 -9.30155 55.1945L-8.56394 53.5542C-7.14926 50.411 -5.50889 47.389 -3.19697 44.945C-2.041 43.723 -0.719901 42.8037 0.749824 42.0936C1.17918 41.8899 1.60854 41.6753 2.0379 41.4606C3.13881 40.9101 4.23973 40.3597 5.36817 39.9083C6.43056 39.4899 6.90946 38.9725 7.37184 38.4606C7.86725 37.9266 8.35166 37.3982 9.49661 37.0184L10.2618 36.7542C11.1865 36.4239 12.1113 36.1046 13.0911 36.011H13.1462C13.2177 36.0055 13.2893 36 13.3333 35.956L13.3498 35.9395C13.57 35.7193 13.8067 35.4991 14.0654 35.8514C14.1768 36.003 14.2413 36.1838 14.2511 36.3716C14.2609 36.5594 14.2155 36.746 14.1205 36.9083C13.7351 37.5028 13.9443 38.0643 14.137 38.5817L14.1535 38.6312C14.6159 39.8422 17.4673 44.6588 18.4856 46.0404L18.8159 46.4753C19.9718 48.0166 22.8012 51.7817 23.6544 54.3854C23.9957 53.7193 24.2379 53.0092 24.4746 52.3101L24.7608 51.4844C25.3297 49.9049 25.8655 48.3138 26.3682 46.712C26.5718 46.0789 26.7535 45.4459 26.9296 44.8019C27.0783 44.2844 27.2214 43.767 27.381 43.2606C27.6177 42.4789 27.8654 41.7083 28.1131 40.9377L28.6085 39.3854L28.9333 38.3285L29.2911 37.145C29.748 35.7248 29.8636 35.4661 31.1627 35.5101C32.77 35.5652 34.6636 36.1321 35.7645 36.5945C41.0489 38.8184 49.4434 44.334 53.3627 52.5688C54.5403 55.1059 55.6327 57.6816 56.6379 60.2918C57.6012 62.7138 58.3553 64.6184 58.9829 65.5211C59.5113 66.2918 59.4507 66.7322 58.7627 67.2881C58.6739 67.3604 58.5876 67.4357 58.504 67.5138C58.2838 67.7175 58.0636 67.9211 57.7773 68.0092C57.4691 68.1028 57.3755 68.367 57.4195 68.7248C57.5507 69.8318 57.6699 70.9401 57.7773 72.0496C57.5517 72.1046 57.337 72.1046 57.0452 72.0551C56.8251 71.5487 56.8361 71.0643 56.8471 70.5964V70.5413C56.8746 69.6881 56.6544 68.9065 56.4232 68.0863L56.2581 67.4863C56.0764 67.5633 55.8948 67.6349 55.7076 67.701C55.3223 67.8441 54.9535 67.9817 54.6067 68.1854C53.313 68.9692 51.8999 69.5363 50.4232 69.8643C49.2728 70.1065 48.7443 70.8055 48.904 72.1101C48.6287 72.1156 48.348 72.0936 48.0728 72.0441C47.9627 69.7487 49.3498 69.2037 51.1443 68.4991L51.7884 68.2404C54.3975 67.167 57.7333 65.6422 57.7333 65.6422C57.7333 65.6422 54.37 57.7211 53.1865 54.7321C50.8746 48.8643 45.0617 43.9046 44.8691 43.7505L43.9498 42.9964V42.9909ZM26.5994 48.567C25.7255 51.1712 24.7784 53.7502 23.759 56.301C22.9884 58.2606 22.1517 60.1872 21.315 62.1083L21.2324 62.3065C20.9296 62.989 20.6489 63.6826 20.3682 64.3707C19.9553 65.3725 19.5425 66.3799 19.0911 67.3597C18.7223 68.1523 18.403 68.9725 18.0838 69.7982L17.6434 70.9211L17.6159 70.9872C17.5498 71.1358 17.4838 71.2844 17.6379 71.4276C17.7535 71.5377 17.8801 71.4551 17.9792 71.3725C18.1113 71.2624 18.2434 71.1468 18.3645 71.0202L19.0801 70.2771L20.0929 69.2312L21.1663 68.1523C21.7498 67.5688 22.3333 66.9909 22.9058 66.3909C23.3186 65.9615 23.6764 65.4716 24.0342 64.9817C24.4195 64.4588 24.8049 63.9358 25.2452 63.4955C26.4227 62.3365 27.5051 61.0848 28.4819 59.7523C28.8232 59.2844 29.181 58.8276 29.5388 58.3707C30.326 57.3523 31.1131 56.334 31.7462 55.1725C32.0324 54.6496 32.0984 54.2863 31.614 53.8624C31.2452 53.5321 30.937 53.1138 30.6342 52.7065L30.5957 52.6514L30.5737 52.6239C30.4085 52.3927 30.2104 52.1285 30.3975 51.7597C30.8049 51.7046 31.2177 51.6881 31.6306 51.6936C32.7865 51.6936 33.9425 51.6496 35.0984 51.6055L35.3021 51.6C35.6984 51.5835 35.9572 51.3578 35.9737 50.8624C35.9991 50.229 36.0321 49.5959 36.0728 48.9633L36.1553 47.5872C36.2544 46.0184 36.3535 44.4496 36.2929 42.8808C36.2379 41.5432 36.2159 40.2 36.2874 38.8624C36.326 38.2019 36.1058 37.8936 35.6434 37.6019C34.3443 36.7872 32.9186 36.5945 31.4929 36.3964L30.8544 36.3083C30.4911 36.2533 30.37 36.4955 30.2764 36.7927C30.1884 37.0789 30.0838 37.3652 29.9847 37.6514C29.8306 38.0753 29.6764 38.5046 29.5663 38.9505C29.3847 39.6881 29.126 40.3927 28.8673 41.0973C28.7131 41.5156 28.559 41.9395 28.4214 42.3633C28.1682 43.156 27.9425 43.9597 27.7168 44.7744C27.392 45.9303 27.0673 47.1138 26.6379 48.2918C26.6334 48.3845 26.6205 48.4766 26.5994 48.567ZM13.3498 39.0991L13.3773 39.1652C14.2856 41.1909 18.6728 47.7854 20.4177 50.2019L20.6654 50.5432C21.5737 51.7707 23.214 53.9945 22.7572 55.8055C22.3201 57.6277 21.6928 59.3989 20.8856 61.0899C20.8361 61.1945 20.803 61.3101 20.7645 61.4257C20.7137 61.671 20.5933 61.8965 20.4177 62.0753C19.7021 60.8643 18.8599 59.7633 18.0177 58.6679C17.6379 58.1725 17.2581 57.6771 16.8893 57.1707C16.6251 56.8074 16.3278 56.4771 16.0361 56.1413C15.7884 55.8661 15.5406 55.5909 15.315 55.2936C15.0342 54.9303 15.0618 54.6936 15.2379 54.3964C15.4306 54.0716 15.5517 53.7138 15.6783 53.356L15.7773 53.0588C16.0361 52.3432 15.8599 51.9688 15.1829 51.7542C14.715 51.611 14.2361 51.6055 13.7572 51.6055C13.4489 51.6055 13.1406 51.6055 12.8379 51.5615C12.8049 51.5615 12.7663 51.5615 12.7278 51.5725L12.6507 51.5835C11.1205 51.611 10.9884 51.4734 10.4984 49.8881C9.81859 47.6881 9.36125 45.4254 9.13331 43.134C9.07826 42.6496 8.99019 42.1762 8.90212 41.7028C8.81955 41.2844 8.73698 40.8716 8.68744 40.4477C8.57735 39.578 8.71496 39.2643 9.41955 38.9615C10.2232 38.6147 10.4709 38.2624 10.6966 37.9432C10.9498 37.5854 11.1755 37.2661 12.1168 37.0294H12.1278C12.8599 36.8422 12.9095 36.8257 12.9425 37.712C12.959 38.2239 13.1627 38.6753 13.3498 39.0936V39.0991Z" fill="black"/>
<path d="M42.3259 6.16513C42.7073 7.01506 42.9077 7.93504 42.9143 8.86658C42.921 9.79813 42.7337 10.7209 42.3645 11.5761C41.6654 13.2055 40.9718 14.8404 40.3498 16.5027C39.6122 18.4624 39.9259 20.3339 40.9003 22.1725C42.0562 24.3468 43.3663 26.455 44.1039 28.8385C44.8195 31.178 45.1113 33.5449 44.1315 35.8404C43.2948 37.8165 42.2819 39.7211 40.2232 40.7835C38.6306 41.6138 36.7854 41.8199 35.0489 41.3615C33.0672 40.8936 31.6195 39.6385 30.1718 38.3339C29.3342 37.5593 28.4637 36.821 27.5626 36.1211C26.8691 35.5927 26.4397 34.8661 25.8893 34.233C25.8012 34.1339 25.7847 34.0183 25.8617 33.9138C25.9333 33.8037 26.0434 33.8147 26.17 33.8422C29.0379 34.5578 30.9204 33.0716 32.5663 31.0018C34.2562 28.8771 35.2746 26.433 35.9792 23.8514C36.8402 20.8053 37.1899 17.6376 37.014 14.4771C36.9039 12.8367 36.6617 11.1908 36.2214 9.57798C35.748 7.87155 35.1315 6.26421 34.1186 4.8055C33.7663 4.31009 33.3094 3.91926 32.9131 3.39633C31.9586 4.4141 30.8954 5.32413 29.7425 6.11009C27.4377 7.73069 24.9371 9.05313 22.3003 10.0459C19.9553 10.9651 17.4562 11.2404 15.0782 11.9945C14.2639 12.245 13.574 12.7934 13.1461 13.5303C12.3851 14.7852 12.1127 16.2764 12.381 17.7193C12.436 18.0055 12.5406 18.3523 12.1498 18.4018C11.792 18.4459 11.8636 18.0605 11.7975 17.8238C11.5333 16.8605 11.3461 15.8752 10.9718 14.9394C10.5535 13.8936 9.22136 13.1009 8.27457 13.3982C7.9851 13.4999 7.72338 13.6679 7.51027 13.8886C7.29716 14.1094 7.13854 14.3768 7.04705 14.6697C6.42692 16.2388 6.20746 17.9377 6.40852 19.6128C6.55714 20.7523 7.18467 21.633 7.8232 22.5193C8.69292 23.7413 9.25439 23.8954 10.6746 23.4826C11.1425 23.3394 11.3571 23.0257 11.5718 22.6569C11.6599 22.4972 11.77 22.3046 11.9902 22.3486C12.2048 22.3816 12.3755 22.5468 12.4305 22.7615C12.8709 24.7651 13.548 26.7138 13.614 28.8C13.7076 31.8605 11.0269 34.6514 8.13696 34.7009C6.32045 34.7339 4.55898 34.4807 2.781 34.2055C1.55047 34.0194 0.296031 34.0642 -0.918088 34.3376C-2.23368 34.6294 -3.50524 34.9761 -4.58414 35.8294C-4.87589 36.0605 -5.11258 35.945 -5.31075 35.6092C-6.40066 33.7706 -7.42451 31.9101 -7.98598 29.8294C-8.70157 27.1486 -9.03185 24.4954 -8.26671 21.7321C-7.96396 20.6312 -7.70524 19.5303 -7.19882 18.5064C-6.27405 16.6349 -5.05203 15.0165 -3.31258 13.8275C-1.38598 12.5064 0.551638 11.2073 2.47824 9.89174C4.07457 8.80733 5.28558 7.35963 6.33145 5.7633C8.23054 2.86788 10.3938 0.203664 13.1406 -1.9156C15.0507 -3.40184 17.1315 -4.63487 19.5039 -5.20735C21.1883 -5.62569 22.9388 -5.70276 24.6562 -5.43303C25.9553 -5.23487 27.2159 -4.97065 28.3608 -4.3156C29.0434 -3.92478 29.748 -3.53946 30.3425 -3.03303C31.0131 -2.50444 31.7794 -2.11009 32.5993 -1.87157C34.8012 -1.13946 36.8214 -0.104593 38.6214 1.35412C40.2177 2.6477 41.5938 4.12843 42.3259 6.15963V6.16513Z" fill="black"/>
<path d="M29.5003 29.5046C29.7645 28.723 29.7205 28.6129 28.9608 28.4752C28.3994 28.3762 27.8984 28.1285 27.3645 27.9578C26.7645 27.7652 26.3737 27.1982 25.7406 27.0496C25.4104 28.6899 27.5957 30.1597 29.4948 29.5101L29.5003 29.5046Z" fill="white"/>
<path fill-rule="evenodd" clip-rule="evenodd" d="M25.57 29.2624C26.0501 29.7409 26.6385 30.0968 27.2852 30.2999C27.9319 30.5031 28.6181 30.5475 29.2856 30.4294L29.6379 30.2918C29.9021 30.1872 30.1443 30.0991 30.3645 29.9725C30.6507 29.8074 30.8764 29.4661 30.6287 29.2129C30.0782 28.6459 30.3535 28.3211 30.8489 27.9909C31.0691 27.8478 31.2012 27.6496 31.0856 27.4019C30.937 27.0716 30.6452 27.1927 30.425 27.2918C30.1191 27.4089 29.7948 27.4704 29.4672 27.4734C28.1021 27.6276 26.9957 26.978 25.9003 26.345L25.8672 26.3285C25.2177 25.9432 24.8214 26.0753 24.7388 26.8349C24.6731 27.2765 24.7142 27.7275 24.8589 28.1499C25.0035 28.5723 25.2474 28.9538 25.57 29.2624ZM28.9608 28.4753C29.7259 28.6129 29.7645 28.723 29.4948 29.5101C27.5957 30.1597 25.4103 28.6845 25.7406 27.0496C26.0709 27.1322 26.3461 27.3248 26.6103 27.523C26.8361 27.7098 27.0908 27.8585 27.3645 27.9634C27.5461 28.0184 27.7223 28.0845 27.8984 28.1505C28.2452 28.2826 28.5865 28.4147 28.9608 28.4808V28.4753Z" fill="black"/>
<path d="M23.8856 25.9817C24.337 26.1854 24.3094 26.4936 24.1168 26.8074C23.9737 27.0551 23.759 27.2037 23.4728 27.0276C23.2085 26.8624 23.2691 26.6367 23.4177 26.4221C23.5388 26.2569 23.5828 26.0202 23.8856 25.9817Z" fill="black"/>
<path d="M30.4746 17.3064C30.2445 18.7756 30.3062 20.2758 30.6562 21.7211C30.9149 22.9541 29.8195 24.7156 28.0801 24.4569C27.4746 24.3688 27.1168 24.011 26.9076 23.4771C26.814 23.2404 26.825 22.9927 27.0892 22.8716C27.3094 22.778 27.4966 22.8606 27.6067 23.0917C27.8709 23.6477 28.3443 23.6092 28.8122 23.4716C29.3406 23.3119 29.7149 22.9431 29.7535 22.3762C29.792 21.8202 29.7645 21.2587 29.6654 20.7028C29.3503 19.0481 29.5185 17.3377 30.1498 15.7762C30.2709 15.4624 30.447 15.1762 30.8048 15.3193C31.2177 15.4844 30.9039 15.8037 30.8434 16.0404C30.7498 16.4477 30.6122 16.8495 30.4746 17.3064Z" fill="black"/>
<path d="M32.6599 20.1743C33.3755 20.1908 34.0581 20.2349 34.7296 20.3119C34.8948 20.334 35.0049 20.4936 35.0049 20.6807C35.0049 20.8624 34.9113 20.989 34.7462 21.0661C34.1296 21.3303 33.5351 21.5174 32.8911 21.0771C32.5333 20.8294 32.3957 20.5982 32.6599 20.1743ZM23.8636 19.8716C24.2489 19.8716 24.2929 20.0807 24.2489 20.3395C24.1388 20.9009 23.148 21.5725 22.5755 21.4679C22.2507 21.4129 21.9975 21.2477 21.9865 20.8899C21.9755 20.5211 22.2507 20.4385 22.5535 20.4275C23.0489 20.411 23.4232 20.1413 23.8636 19.8771V19.8716ZM22.0746 17.6477C22.3498 16.9872 22.57 16.0294 23.4012 16.4092C24.5407 16.9266 24.1663 18.0991 23.9351 19.0184C23.8471 19.3651 23.137 19.8936 22.9278 19.8055C22.0306 19.4312 21.8709 18.611 22.0746 17.6477ZM34.5645 19.6734C34.0911 20.0862 33.6287 20.0918 33.3425 19.5908C32.8471 18.7101 32.8691 17.7853 33.5241 16.9927C33.6618 16.8275 34.2838 16.7945 34.4214 16.9376C35.192 17.7633 35.2251 18.6881 34.5645 19.6734Z" fill="black"/>
<path d="M24.8819 14.5211C24.403 13.855 23.4947 13.6403 22.7461 13.833C22.0856 14.0091 21.5516 14.4385 20.8966 14.6257C20.6764 14.6862 20.4837 14.7743 20.3626 14.5101C20.258 14.2954 20.2801 14.1027 20.4837 13.9431C21.5186 13.1559 23.4342 12.4624 24.8158 13.233C25.152 13.4396 25.4349 13.7225 25.6415 14.0587C25.8232 14.3174 25.8892 14.6972 25.6415 14.8899C25.3168 15.1431 25.0911 14.8238 24.8819 14.5211ZM35.1149 14.8513C34.581 14.4935 34.0746 14.4495 33.5736 14.8073C33.3975 14.9339 33.2048 15.0715 33.0232 14.8513C32.8415 14.6257 32.8911 14.3779 33.0947 14.1578C33.403 13.822 33.8213 13.7669 34.2397 13.7174C34.726 13.6712 35.211 13.8187 35.5892 14.1279C35.9674 14.4371 36.2084 14.883 36.2599 15.3688C36.2709 15.6055 36.2599 15.8697 35.9736 15.9357C35.7149 15.9908 35.5168 15.8422 35.4122 15.611C35.3076 15.3798 35.236 15.1321 35.1149 14.8513ZM29.8085 13.8165C30.0947 13.4532 30.2489 12.9908 30.6067 12.6825C30.7443 12.5669 30.8489 12.3798 31.0746 12.5064C31.2782 12.622 31.2947 12.8312 31.2397 13.0018C31.0691 13.4752 30.8709 13.9431 30.6507 14.4C30.5406 14.6201 30.2654 14.7027 30.0452 14.6312C29.6819 14.5211 29.77 14.1963 29.803 13.866V13.811L29.8085 13.8165Z" fill="black"/>
<path d="M29.814 13.8055C29.7039 14.0366 29.6158 14.2733 29.5002 14.499C29.4121 14.6697 29.269 14.8183 29.0599 14.7522C28.8066 14.6752 28.7846 14.4605 28.8397 14.2403C28.9057 14.0146 28.9773 13.8 29.0599 13.5798C29.1699 13.3211 29.1424 12.8972 29.5718 12.9578C30.0342 13.0293 29.814 13.4201 29.814 13.7504V13.8055Z" fill="black"/>
<path d="M52.0415 72.3797L44.9681 72.4898C44.9681 72.4898 45.3535 70.2109 45.6067 69.4072C46.1461 67.6788 44.814 67.5962 44.5938 66.4348C44.3736 65.2623 44.7259 65.0256 44.836 64.3816C44.9461 63.732 44.4067 63.7981 44.0434 63.4348C43.6801 63.066 43.9113 62.9944 44.0874 62.3724C44.2636 61.7504 42.9315 62.0586 42.2324 61.0513C41.5333 60.0494 41.814 59.0696 41.814 59.0696C41.814 59.0696 41.0214 58.9375 41.1535 58.1228C41.2856 57.3082 41.5938 56.2513 42.5847 55.7173C43.5755 55.1889 49.1241 54.5063 49.1241 54.5063C49.1241 54.5063 48.6837 49.7118 48.6452 48.688C48.6122 47.6696 48.9755 45.0329 49.8507 44.9118C50.7204 44.7852 51.1828 48.0054 51.425 49.4586C51.6672 50.9173 53.2746 55.5687 53.4507 56.9779C53.6269 58.3871 53.1645 62.6421 53.1204 63.3632C53.0764 64.0953 52.1516 65.8348 51.7993 66.8916C51.447 67.9485 52.0415 72.3797 52.0415 72.3797Z" fill="white"/>
<path d="M44.77 72.4954C44.7149 71.5321 45.0452 70.6238 45.1993 69.677C45.3149 68.9339 45.348 68.3449 44.7865 67.6843C44.4498 67.2995 44.2406 66.8199 44.1873 66.3113C44.1341 65.8028 44.2396 65.2902 44.4893 64.844C44.6984 64.4366 44.6434 64.1999 44.2415 64.0018C43.2287 63.4954 43.1516 63.1871 43.7516 62.1632C42.2048 61.7999 41.6379 61.1174 41.5608 59.5596C41.5553 59.422 41.5718 59.2293 41.4948 59.1577C40.1902 58.0128 41.3186 57.1045 41.814 56.1743C42.1828 55.4862 42.8489 55.211 43.647 55.0733C45.1058 54.8311 46.5425 54.5064 48.0342 54.5559C48.4195 54.5669 48.5571 54.3687 48.6232 54.0054C48.7773 53.1192 48.6452 52.222 48.5681 51.3467C48.4636 50.0917 48.2764 48.5779 48.403 47.3009C48.4911 46.4972 49.7241 44.5486 49.9333 44.5431C50.4122 44.5265 50.6599 44.7247 50.7039 45.2366C50.7314 45.5834 51.1003 47.8458 51.2599 48.4843C51.7553 50.444 52.5975 52.3376 53.2691 54.9963C54.8544 61.2385 53.192 63.8146 52.2837 67.0403C51.7388 68.9669 52.603 72.5009 52.603 72.5009C52.603 72.5009 51.9315 72.5009 51.5406 72.4458C51.3975 71.0146 51.2984 69.644 51.2269 68.2733C51.1828 67.4642 51.1443 66.666 51.5957 65.9064C52.0581 65.1247 52.5149 64.31 52.6691 63.4018C52.9993 61.5577 53.225 59.6972 53.1204 57.8091C53.0984 57.3412 52.9663 56.9064 52.8617 56.455C52.6801 55.6568 52.3113 54.9302 52.047 54.1761C51.7003 53.2128 51.8048 52.1779 51.414 51.2421C51.2599 50.8733 51.2048 50.4825 51.1278 50.0917C50.7975 48.4843 50.4067 46.888 50.0269 45.2366C49.8254 45.3444 49.6552 45.5024 49.5327 45.6953C49.4102 45.8881 49.3396 46.1094 49.3278 46.3376C49.2727 47.2073 49.0691 48.0605 49.1461 48.9302C49.2782 50.5265 49.3058 52.1339 49.5315 53.7247C49.57 54.055 49.6526 54.3192 49.9498 54.4843C50.148 54.5944 50.2856 54.7596 50.2085 55.0018C50.1204 55.277 49.8782 55.2275 49.6801 55.1724C49.4599 55.1174 49.2672 55.1779 49.0581 55.1779C47.737 55.1889 46.4709 55.5467 45.1608 55.6733C43.7681 55.7999 42.425 56.1688 41.9131 57.7651C41.8526 57.9577 41.6434 58.1614 41.847 58.3265C42.0232 58.4752 42.2104 58.6458 42.5351 58.5192C44.6269 57.721 46.8177 57.6109 49.025 57.666C49.3278 57.6825 49.6305 57.7596 49.9058 57.8972C50.0874 57.9908 50.236 58.0954 50.17 58.321C50.1149 58.5137 49.9388 58.5247 49.7626 58.5027C48.3975 58.3541 47.0599 58.6073 45.7113 58.7449C44.8085 58.833 43.8948 58.877 43.0415 59.2403C42.6948 59.3944 42.4085 59.5706 42.3535 59.9614C42.2984 60.3632 42.4526 60.688 42.7663 60.9522C43.025 61.1724 43.3168 61.1779 43.6305 61.1779H49.8232C50.1039 61.1779 50.3847 61.1999 50.6654 61.233C50.803 61.244 50.9406 61.3265 50.9516 61.4917C50.9736 61.6458 50.8801 61.7504 50.7645 61.844C50.5993 61.9651 50.4122 61.9596 50.225 61.9816C48.9645 62.1302 47.6984 62.0697 46.4324 62.0697C45.5792 62.0697 44.836 62.3119 44.2305 63.033C45.0562 63.4458 45.8214 63.8917 46.625 64.2165C47.4397 64.5412 48.4195 64.0513 49.2782 64.6018C48.3425 65.444 47.0984 65.4385 45.2599 64.6293C45.1498 65.6311 44.7975 66.611 45.7223 67.4366C46.0525 67.7284 46.1626 68.1137 46.1792 68.5651C46.2287 69.9192 45.7773 71.1908 45.5571 72.5009H44.77V72.4954Z" fill="black"/>
</g>
</g>
<defs>
<clipPath id="clip0_2_204">
<path d="M0.65625 24C0.65625 10.7452 11.4014 0 24.6562 0V0C37.9111 0 48.6562 10.7452 48.6562 24V24C48.6562 37.2548 37.9111 48 24.6562 48V48C11.4014 48 0.65625 37.2548 0.65625 24V24Z" fill="white"/>
</clipPath>
</defs>
</svg>
