<svg width="31" height="30" viewBox="0 0 31 30" fill="none" xmlns="http://www.w3.org/2000/svg">
<g clip-path="url(#clip0_2_148)">
<path d="M0.896484 2.23828C0.738281 2.00391 0.65625 1.72266 0.65625 1.44141C0.65625 0.644531 1.30078 0 2.09766 0H8.50195C9.1582 0 9.77344 0.345703 10.1074 0.908203L14.1211 7.59375C11.2969 7.95117 8.77148 9.26953 6.89063 11.2207L0.896484 2.23828ZM30.4102 2.23828L24.4219 11.2207C22.541 9.26953 20.0156 7.95117 17.1914 7.59375L21.2051 0.908203C21.5449 0.345703 22.1543 0 22.8105 0H29.2148C30.0117 0 30.6562 0.644531 30.6562 1.44141C30.6562 1.72266 30.5742 2.00391 30.416 2.23828H30.4102ZM5.34375 19.6875C5.34375 16.9525 6.43024 14.3294 8.36421 12.3955C10.2982 10.4615 12.9212 9.375 15.6562 9.375C18.3913 9.375 21.0143 10.4615 22.9483 12.3955C24.8823 14.3294 25.9688 16.9525 25.9688 19.6875C25.9688 22.4225 24.8823 25.0456 22.9483 26.9795C21.0143 28.9135 18.3913 30 15.6562 30C12.9212 30 10.2982 28.9135 8.36421 26.9795C6.43024 25.0456 5.34375 22.4225 5.34375 19.6875ZM16.1484 14.127C15.9492 13.7168 15.3691 13.7168 15.1641 14.127L13.8516 16.7871C13.7695 16.9512 13.6172 17.0625 13.4414 17.0859L10.5 17.5137C10.0488 17.5781 9.87305 18.1289 10.1953 18.4512L12.3223 20.5254C12.4512 20.6543 12.5098 20.8301 12.4805 21.0117L11.9766 23.9355C11.9004 24.3809 12.3691 24.7266 12.7734 24.5156L15.3984 23.1328C15.5566 23.0508 15.75 23.0508 15.9082 23.1328L18.5332 24.5156C18.9375 24.7266 19.4063 24.3867 19.3301 23.9355L18.8262 21.0117C18.7969 20.8359 18.8555 20.6543 18.9844 20.5254L21.1113 18.4512C21.4395 18.1348 21.2578 17.584 20.8066 17.5137L17.8711 17.0859C17.6953 17.0625 17.5371 16.9453 17.4609 16.7871L16.1484 14.127Z" fill="#374151"/>
</g>
<defs>
<clipPath id="clip0_2_148">
<path d="M0.65625 0H30.6562V30H0.65625V0Z" fill="white"/>
</clipPath>
</defs>
</svg>
