<svg width="30" height="22" viewBox="0 0 30 22" fill="none" xmlns="http://www.w3.org/2000/svg">
<path d="M8.02969 3.5H10.5V8H5.21719L6.64219 4.44219C6.86719 3.875 7.41563 3.5 8.02969 3.5ZM12.75 8V3.5H16.5563C17.0109 3.5 17.4422 3.70625 17.7281 4.0625L20.8781 8H12.75ZM24.7594 8.04688L20.0719 2.1875C19.2188 1.11875 17.925 0.5 16.5563 0.5H8.02969C6.1875 0.5 4.53281 1.62031 3.85312 3.32656L1.90312 8.20625C0.7875 8.64687 0 9.72969 0 11V16.25C0 17.0797 0.670312 17.75 1.5 17.75H3.06094C3.41719 19.8781 5.26875 21.5 7.5 21.5C9.73125 21.5 11.5828 19.8781 11.9391 17.75H18.0609C18.4172 19.8781 20.2688 21.5 22.5 21.5C24.7312 21.5 26.5828 19.8781 26.9391 17.75H28.5C29.3297 17.75 30 17.0797 30 16.25V14C30 10.9438 27.7125 8.42188 24.7594 8.04688ZM20.3766 16.25C20.4721 15.9676 20.6227 15.707 20.8197 15.4834C21.0168 15.2597 21.2563 15.0774 21.5244 14.9471C21.7925 14.8168 22.0838 14.7411 22.3814 14.7243C22.6791 14.7076 22.977 14.7501 23.2581 14.8495C23.5391 14.9488 23.7976 15.1031 24.0185 15.3032C24.2394 15.5033 24.4184 15.7453 24.545 16.0152C24.6716 16.285 24.7433 16.5774 24.756 16.8752C24.7686 17.173 24.722 17.4704 24.6188 17.75C24.5233 18.0324 24.3726 18.293 24.1756 18.5166C23.9785 18.7403 23.739 18.9226 23.4709 19.0529C23.2028 19.1832 22.9115 19.2589 22.6139 19.2757C22.3163 19.2924 22.0183 19.2499 21.7372 19.1505C21.4562 19.0512 21.1977 18.8969 20.9768 18.6968C20.7559 18.4967 20.5769 18.2547 20.4503 17.9848C20.3237 17.715 20.252 17.4226 20.2394 17.1248C20.2267 16.827 20.2733 16.5296 20.3766 16.25ZM7.5 14.75C8.09674 14.75 8.66903 14.9871 9.09099 15.409C9.51295 15.831 9.75 16.4033 9.75 17C9.75 17.5967 9.51295 18.169 9.09099 18.591C8.66903 19.0129 8.09674 19.25 7.5 19.25C6.90326 19.25 6.33097 19.0129 5.90901 18.591C5.48705 18.169 5.25 17.5967 5.25 17C5.25 16.4033 5.48705 15.831 5.90901 15.409C6.33097 14.9871 6.90326 14.75 7.5 14.75Z" fill="white"/>
</svg>
